Coordinates
version=1
nRows=14
nColumns=40
inDegrees=yes

Units are S.I. units (second, meters, Newtons, ...)
Angles are in degrees.

endheader
time	pelvis_tilt	pelvis_list	pelvis_rotation	pelvis_tx	pelvis_ty	pelvis_tz	hip_flexion_r	hip_adduction_r	hip_rotation_r	knee_angle_r	knee_angle_r_beta	ankle_angle_r	subtalar_angle_r	mtp_angle_r	hip_flexion_l	hip_adduction_l	hip_rotation_l	knee_angle_l	knee_angle_l_beta	ankle_angle_l	subtalar_angle_l	mtp_angle_l	lumbar_extension	lumbar_bending	lumbar_rotation	arm_flex_r	arm_add_r	arm_rot_r	elbow_flex_r	pro_sup_r	wrist_flex_r	wrist_dev_r	arm_flex_l	arm_add_l	arm_rot_l	elbow_flex_l	pro_sup_l	wrist_flex_l	wrist_dev_l
     19.84628571	     -5.19085647	     -4.88393891	      1.82437230	      1.01671352	      0.93007881	      0.42008246	     40.30392826	     -7.66996583	     -7.57826702	     71.18787930	     71.18787930	     -2.53888596	    -18.25988055	      6.94349861	     15.00617349	     -6.59783006	     -6.97757332	     22.42267700	     22.42267700	     14.14222695	    -11.61509539	      1.09895110	    -12.80340072	      5.43048640	      3.64349244	      4.71695672	    -14.86284990	    -12.20604037	     52.47025144	     46.32544959	      0.00000000	      0.00000000	     15.64201295	    -17.27548092	      0.79276905	     71.30707535	     47.29947401	      0.00000000	      0.00000000
     19.85757143	     -5.26135865	     -4.91182770	      1.64473411	      1.01605376	      0.93031532	      0.42053039	     41.14333359	     -7.47597763	     -7.77177841	     69.13902893	     69.13902893	     -2.44515964	    -18.05823110	      6.52258377	     14.21110190	     -6.67526722	     -7.26519323	     21.82029620	     21.82029620	     14.28668084	    -11.36220513	      0.74163807	    -12.92763055	      5.44967180	      3.51312085	      4.66255479	    -14.90957537	    -11.90922254	     47.18256289	     46.44935001	      0.00000000	      0.00000000	     16.66865324	    -17.85957803	      0.43191594	     73.93900090	     47.41815868	      0.00000000	      0.00000000
     19.86885714	     -5.34222983	     -4.94569065	      1.47811021	      1.01555845	      0.93046789	      0.42104230	     41.75902999	     -7.27036626	     -8.02563894	     66.64712897	     66.64712897	     -2.43231535	    -17.81785737	      5.75308805	     13.42756088	     -6.76992626	     -7.57580690	     21.23914589	     21.23914589	     14.43149086	    -11.03962274	      0.32344346	    -13.01612154	      5.51045223	      3.39411362	      4.64427568	    -14.95927719	    -11.79651260	     42.01359154	     46.57905394	      0.00000000	      0.00000000	     17.60364564	    -18.47309105	      0.32488759	     76.47957751	     47.51938496	      0.00000000	      0.00000000
     19.88014286	     -5.43807054	     -4.98784084	      1.27250973	      1.01523211	      0.93054745	      0.42170067	     42.20963735	     -7.02626385	     -8.30620620	     63.78064043	     63.78064043	     -2.28147917	    -17.32112994	      5.68685187	     12.54619736	     -6.84263900	     -7.81689493	     20.48930680	     20.48930680	     14.74009841	    -10.75046816	      0.24079808	    -13.13801487	      5.57905265	      4.07297070	      3.01668909	    -15.31414224	    -11.72682172	     39.85677062	     46.63755179	      0.00000000	      0.00000000	     19.09908958	    -18.30275003	      0.03795677	     78.53987756	     47.59253822	      0.00000000	      0.00000000
     19.89142857	     -5.55913088	     -4.94677932	      1.13214929	      1.01501876	      0.93047693	      0.42231233	     42.42186296	     -6.85818562	     -8.59441857	     60.49597437	     60.49597437	     -1.97158730	    -16.75971340	      5.32610818	     11.76495878	     -6.84748470	     -8.16433033	     19.86132800	     19.86132800	     14.89966712	    -10.34592120	      0.04049320	    -13.25578127	      5.61949290	      4.42654559	      1.85032463	    -15.48662701	    -11.68534283	     37.19025889	     46.72073798	      0.00000000	      0.00000000	     20.35438390	    -18.48376780	      0.07472318	     80.63977372	     47.64461749	      0.00000000	      0.00000000
     19.90271429	     -5.63723337	     -4.93197386	      0.99265520	      1.01506218	      0.93035711	      0.42301575	     42.31260633	     -6.66404672	     -8.98096472	     56.76350531	     56.76350531	     -1.83726554	    -16.00823122	      4.75417882	     10.84621345	     -6.86797346	     -8.48275519	     19.10830577	     19.10830577	     15.18628361	     -9.87156570	     -0.30521379	    -13.33507375	      5.66240479	      4.77207367	      0.90994727	    -15.55963643	    -11.65626369	     34.09832216	     46.82394817	      0.00000000	      0.00000000	     21.43397328	    -18.75258817	      0.22805439	     83.06915790	     47.69614789	      0.00000000	      0.00000000
     19.91400000	     -6.03259277	     -4.69109200	      0.91129512	      1.01505813	      0.92947269	      0.42382056	     42.38581800	     -6.63696039	     -9.26623905	     52.80965861	     52.80965861	     -1.33503195	    -15.38329994	      4.86771329	     10.53410753	     -6.66076494	     -8.71935103	     18.82465445	     18.82465445	     15.31886432	     -9.71793824	     -0.43952912	    -12.91417167	      5.42671892	      4.39043031	     -0.32194430	    -15.40732879	    -11.65253469	     33.08672964	     46.85250647	      0.00000000	      0.00000000	     22.53061607	    -19.44659998	     -0.09358522	     83.97042103	     47.74230731	      0.00000000	      0.00000000
     19.92528571	     -6.02518922	     -4.67868359	      0.90544769	      1.01571849	      0.92917187	      0.42455784	     41.39713964	     -6.45471099	    -10.02386839	     47.97263924	     47.97263924	     -2.22625537	    -14.88240595	      0.40656349	      9.35411880	     -6.67508051	     -9.13363810	     17.74568403	     17.74568403	     15.18025589	     -9.10087615	     -1.80927108	    -13.05343081	      5.43062278	      3.52301529	      1.46457832	    -15.02604073	    -12.21799461	     25.17847343	     47.18148606	      0.00000000	      0.00000000	     21.93432306	    -20.35803611	     -0.98941741	     88.70078034	     47.95679980	      0.00000000	      0.00000000
     19.93657143	     -6.16295402	     -4.58631902	      0.94688438	      1.01645035	      0.92839871	      0.42532346	     40.51037519	     -6.27448335	    -10.68083172	     43.23483496	     43.23483496	     -1.64392196	    -13.63878991	      0.70373029	      8.53351800	     -6.59266686	     -9.30597805	     17.07771412	     17.07771412	     15.48342308	     -8.65817153	     -1.96392332	    -12.95476660	      5.44037522	      3.67622849	     -0.06617626	    -15.00951056	    -12.26243286	     24.39850351	     47.20001320	      0.00000000	      0.00000000	     22.85878466	    -20.46442766	     -1.03253319	     90.35617128	     48.00307634	      0.00000000	      0.00000000
     19.94785714	     -6.39076533	     -4.42850947	      1.03936280	      1.01745826	      0.92717496	      0.42622624	     39.50856352	     -6.08653637	    -11.31145993	     38.39107372	     38.39107372	     -1.04231467	    -12.30737097	      1.14294163	      7.82138924	     -6.44901424	     -9.44956666	     16.45565349	     16.45565349	     15.80247555	     -8.20715041	     -2.17223285	    -12.65561078	      5.34746849	      3.70061847	     -1.53556842	    -14.80698637	    -12.26528125	     23.72522690	     47.21217259	      0.00000000	      0.00000000	     23.76986707	    -20.70537595	     -1.08092343	     91.92042836	     48.04600139	      0.00000000	      0.00000000
     19.95914286	     -6.25720178	     -4.11124023	      1.15952377	      1.01910247	      0.92614546	      0.42708134	     37.93818039	     -6.10220095	    -12.21013169	     33.63758953	     33.63758953	     -0.32964596	    -10.22329595	      1.58238493	      6.56076260	     -6.16344352	     -9.86296345	     15.64289093	     15.64289093	     16.13091873	     -7.27786538	     -2.69591071	    -12.82974506	      4.99222191	      3.92711162	     -3.17947182	    -14.67502793	    -12.26085109	     23.13922689	     47.21268631	      0.00000000	      0.00000000	     24.31977775	    -20.91653696	     -0.62257031	     94.88890295	     48.09308912	      0.00000000	      0.00000000
     19.97042857	     -6.29382527	     -3.91031835	      1.38637533	      1.02090237	      0.92460936	      0.42807235	     36.40522873	     -5.88567514	    -12.99375974	     28.97999156	     28.97999156	      0.12548108	     -8.57688654	      2.47113416	      5.62766592	     -5.98978357	     -9.87853674	     15.06929158	     15.06929158	     16.53736335	     -6.81407593	     -2.98643025	    -12.61816727	      4.84412330	      3.80882458	     -4.63207918	    -14.42576107	    -12.22899115	     22.77233476	     47.20633140	      0.00000000	      0.00000000	     24.87332185	    -21.13115063	     -0.58690185	     96.42405355	     48.13086839	      0.00000000	      0.00000000
     19.98171429	     -6.17229878	     -3.56828888	      1.65112348	      1.02308839	      0.92303034	      0.42905097	     34.74146084	     -5.84302689	    -13.83731015	     24.88753716	     24.88753716	      0.66527972	     -6.51824338	      3.57385693	      4.43476297	     -5.66613956	     -9.96235647	     14.37623659	     14.37623659	     16.93602810	     -6.18299945	     -3.26227988	    -12.64550382	      4.52809177	      3.80022655	     -6.23701211	    -14.11866312	    -12.15464528	     22.63468074	     47.18198823	      0.00000000	      0.00000000	     25.33178433	    -21.29745907	     -0.41925482	     98.41570279	     48.17102480	      0.00000000	      0.00000000
     19.99300000	     -6.09010068	     -3.17509518	      1.91752003	      1.02552613	      0.92115557	      0.43016821	     33.26164366	     -5.84455670	    -14.56260211	     21.52194565	     21.52194565	      1.03156706	     -4.69305956	      4.70087608	      3.31819068	     -5.30587187	     -9.95846159	     13.78655512	     13.78655512	     17.38385554	     -5.68535832	     -3.44545097	    -12.49190402	      4.14916605	      3.71545851	     -7.75848154	    -13.73513771	    -12.05693244	     22.67466483	     47.14791244	      0.00000000	      0.00000000	     25.74641791	    -21.48393303	     -0.29024179	    100.14539026	     48.20637735	      0.00000000	      0.00000000
